<svg width="68" height="26" viewBox="0 0 68 26" fill="none" xmlns="http://www.w3.org/2000/svg">
<path d="M10.8993 0.832V12H8.65925V7.248H3.87525V12H1.63525V0.832H3.87525V5.424H8.65925V0.832H10.8993ZM18.288 12.112C17.2427 12.112 16.2827 11.8667 15.408 11.376C14.5333 10.8853 13.84 10.208 13.328 9.344C12.816 8.46933 12.56 7.48267 12.56 6.384C12.56 5.296 12.816 4.32 13.328 3.456C13.84 2.58133 14.5333 1.89867 15.408 1.408C16.2827 0.917333 17.2427 0.672 18.288 0.672C19.344 0.672 20.304 0.917333 21.168 1.408C22.0427 1.89867 22.7307 2.58133 23.232 3.456C23.744 4.32 24 5.296 24 6.384C24 7.48267 23.744 8.46933 23.232 9.344C22.7307 10.208 22.0427 10.8853 21.168 11.376C20.2933 11.8667 19.3333 12.112 18.288 12.112ZM18.288 10.112C18.96 10.112 19.552 9.96267 20.064 9.664C20.576 9.35467 20.976 8.91733 21.264 8.352C21.552 7.78667 21.696 7.13067 21.696 6.384C21.696 5.63733 21.552 4.98667 21.264 4.432C20.976 3.86667 20.576 3.43467 20.064 3.136C19.552 2.83733 18.96 2.688 18.288 2.688C17.616 2.688 17.0187 2.83733 16.496 3.136C15.984 3.43467 15.584 3.86667 15.296 4.432C15.008 4.98667 14.864 5.63733 14.864 6.384C14.864 7.13067 15.008 7.78667 15.296 8.352C15.584 8.91733 15.984 9.35467 16.496 9.664C17.0187 9.96267 17.616 10.112 18.288 10.112ZM35.2185 12H32.9785L27.9065 4.336V12H25.6665V0.815999H27.9065L32.9785 8.496V0.815999H35.2185V12ZM39.6721 2.64V5.44H43.4321V7.216H39.6721V10.176H43.9121V12H37.4321V0.815999H43.9121V2.64H39.6721ZM54.8278 0.832L51.0518 8.112V12H48.8118V8.112L45.0198 0.832H47.5478L49.9478 5.936L52.3318 0.832H54.8278ZM0.505313 19.4C0.505313 18.3013 0.750646 17.32 1.24131 16.456C1.74265 15.5813 2.41998 14.904 3.27331 14.424C4.13731 13.9333 5.10265 13.688 6.16931 13.688C7.41731 13.688 8.51065 14.008 9.44931 14.648C10.388 15.288 11.044 16.1733 11.4173 17.304H8.84131C8.58531 16.7707 8.22265 16.3707 7.75331 16.104C7.29465 15.8373 6.76131 15.704 6.15331 15.704C5.50265 15.704 4.92131 15.8587 4.40931 16.168C3.90798 16.4667 3.51331 16.8933 3.22531 17.448C2.94798 18.0027 2.80931 18.6533 2.80931 19.4C2.80931 20.136 2.94798 20.7867 3.22531 21.352C3.51331 21.9067 3.90798 22.3387 4.40931 22.648C4.92131 22.9467 5.50265 23.096 6.15331 23.096C6.76131 23.096 7.29465 22.9627 7.75331 22.696C8.22265 22.4187 8.58531 22.0133 8.84131 21.48H11.4173C11.044 22.6213 10.388 23.512 9.44931 24.152C8.52131 24.7813 7.42798 25.096 6.16931 25.096C5.10265 25.096 4.13731 24.856 3.27331 24.376C2.41998 23.8853 1.74265 23.208 1.24131 22.344C0.750646 21.48 0.505313 20.4987 0.505313 19.4ZM19.0906 25L16.6266 20.648H15.5706V25H13.3306V13.832H17.5226C18.3866 13.832 19.1226 13.9867 19.7306 14.296C20.3386 14.5947 20.7919 15.0053 21.0906 15.528C21.3999 16.04 21.5546 16.616 21.5546 17.256C21.5546 17.992 21.3412 18.6587 20.9146 19.256C20.4879 19.8427 19.8532 20.248 19.0106 20.472L21.6826 25H19.0906ZM15.5706 18.968H17.4426C18.0506 18.968 18.5039 18.824 18.8026 18.536C19.1012 18.2373 19.2506 17.8267 19.2506 17.304C19.2506 16.792 19.1012 16.3973 18.8026 16.12C18.5039 15.832 18.0506 15.688 17.4426 15.688H15.5706V18.968ZM25.7886 13.832V20.744C25.7886 21.5013 25.9859 22.0827 26.3806 22.488C26.7752 22.8827 27.3299 23.08 28.0446 23.08C28.7699 23.08 29.3299 22.8827 29.7246 22.488C30.1192 22.0827 30.3166 21.5013 30.3166 20.744V13.832H32.5726V20.728C32.5726 21.6773 32.3646 22.4827 31.9486 23.144C31.5432 23.7947 30.9939 24.2853 30.3006 24.616C29.6179 24.9467 28.8552 25.112 28.0126 25.112C27.1806 25.112 26.4232 24.9467 25.7406 24.616C25.0686 24.2853 24.5352 23.7947 24.1406 23.144C23.7459 22.4827 23.5486 21.6773 23.5486 20.728V13.832H25.7886ZM46.9128 13.832V25H44.6728V17.736L41.6808 25H39.9848L36.9768 17.736V25H34.7368V13.832H37.2808L40.8328 22.136L44.3848 13.832H46.9128ZM55.4634 19.272C56.0928 19.3893 56.6101 19.704 57.0154 20.216C57.4208 20.728 57.6234 21.3147 57.6234 21.976C57.6234 22.5733 57.4741 23.1013 57.1754 23.56C56.8874 24.008 56.4661 24.36 55.9114 24.616C55.3568 24.872 54.7008 25 53.9434 25H49.1274V13.832H53.7354C54.4928 13.832 55.1434 13.9547 55.6874 14.2C56.2421 14.4453 56.6581 14.7867 56.9354 15.224C57.2234 15.6613 57.3674 16.1573 57.3674 16.712C57.3674 17.3627 57.1914 17.9067 56.8394 18.344C56.4981 18.7813 56.0394 19.0907 55.4634 19.272ZM51.3674 18.44H53.4154C53.9488 18.44 54.3594 18.3227 54.6474 18.088C54.9354 17.8427 55.0794 17.496 55.0794 17.048C55.0794 16.6 54.9354 16.2533 54.6474 16.008C54.3594 15.7627 53.9488 15.64 53.4154 15.64H51.3674V18.44ZM53.6234 23.176C54.1674 23.176 54.5888 23.048 54.8874 22.792C55.1968 22.536 55.3514 22.1733 55.3514 21.704C55.3514 21.224 55.1914 20.8507 54.8714 20.584C54.5514 20.3067 54.1194 20.168 53.5754 20.168H51.3674V23.176H53.6234ZM63.2647 25.112C62.486 25.112 61.782 24.9787 61.1527 24.712C60.534 24.4453 60.0434 24.0613 59.6807 23.56C59.318 23.0587 59.1314 22.4667 59.1207 21.784H61.5207C61.5527 22.2427 61.7127 22.6053 62.0007 22.872C62.2994 23.1387 62.7047 23.272 63.2167 23.272C63.7394 23.272 64.15 23.1493 64.4487 22.904C64.7474 22.648 64.8967 22.3173 64.8967 21.912C64.8967 21.5813 64.7954 21.3093 64.5927 21.096C64.39 20.8827 64.134 20.7173 63.8247 20.6C63.526 20.472 63.11 20.3333 62.5767 20.184C61.8514 19.9707 61.2594 19.7627 60.8007 19.56C60.3527 19.3467 59.9634 19.032 59.6327 18.616C59.3127 18.1893 59.1527 17.624 59.1527 16.92C59.1527 16.2587 59.318 15.6827 59.6487 15.192C59.9794 14.7013 60.4434 14.328 61.0407 14.072C61.638 13.8053 62.3207 13.672 63.0887 13.672C64.2407 13.672 65.174 13.9547 65.8887 14.52C66.614 15.0747 67.014 15.8533 67.0887 16.856H64.6247C64.6034 16.472 64.438 16.1573 64.1287 15.912C63.83 15.656 63.43 15.528 62.9287 15.528C62.4914 15.528 62.1394 15.64 61.8727 15.864C61.6167 16.088 61.4887 16.4133 61.4887 16.84C61.4887 17.1387 61.5847 17.3893 61.7767 17.592C61.9794 17.784 62.2247 17.944 62.5127 18.072C62.8114 18.1893 63.2274 18.328 63.7607 18.488C64.486 18.7013 65.078 18.9147 65.5367 19.128C65.9954 19.3413 66.39 19.6613 66.7207 20.088C67.0514 20.5147 67.2167 21.0747 67.2167 21.768C67.2167 22.3653 67.062 22.92 66.7527 23.432C66.4434 23.944 65.99 24.3547 65.3927 24.664C64.7954 24.9627 64.086 25.112 63.2647 25.112Z" fill="black"/>
<path d="M64.7116 12L63.4956 10.8C62.461 11.728 61.197 12.192 59.7036 12.192C58.8823 12.192 58.157 12.0533 57.5276 11.776C56.909 11.488 56.429 11.088 56.0876 10.576C55.7463 10.0533 55.5756 9.45067 55.5756 8.768C55.5756 8.032 55.7836 7.37067 56.1996 6.784C56.6156 6.19733 57.229 5.72267 58.0396 5.36C57.7516 5.008 57.5436 4.672 57.4156 4.352C57.2876 4.02133 57.2236 3.66933 57.2236 3.296C57.2236 2.784 57.357 2.32533 57.6236 1.92C57.8903 1.504 58.269 1.17867 58.7596 0.943999C59.261 0.709332 59.8423 0.591999 60.5036 0.591999C61.1756 0.591999 61.7516 0.719999 62.2316 0.976C62.7116 1.232 63.069 1.57333 63.3036 2C63.5383 2.42667 63.6396 2.90133 63.6076 3.424H61.4316C61.4423 3.072 61.357 2.80533 61.1756 2.624C60.9943 2.432 60.749 2.336 60.4396 2.336C60.141 2.336 59.8903 2.42667 59.6876 2.608C59.4956 2.77867 59.3996 3.00267 59.3996 3.28C59.3996 3.54667 59.4796 3.81333 59.6396 4.08C59.7996 4.336 60.061 4.656 60.4236 5.04L63.2396 7.824C63.261 7.80267 63.277 7.78133 63.2876 7.76C63.2983 7.73867 63.309 7.71733 63.3196 7.696L64.2316 6.176H66.5676L65.4476 8.144C65.2343 8.56 65.005 8.95467 64.7596 9.328L67.4636 12H64.7116ZM59.7676 10.336C60.6423 10.336 61.4156 10.0267 62.0876 9.408L59.3356 6.688C58.301 7.14667 57.7836 7.79733 57.7836 8.64C57.7836 9.12 57.965 9.52533 58.3276 9.856C58.6903 10.176 59.1703 10.336 59.7676 10.336Z" fill="#54494B"/>
</svg>
